HIERARCHY
ROOT Hips
{
	OFFSET 0.000000 0.000000 0.000000
	CHANNELS 6 Xposition Yposition Zposition Zrotation Yrotation Xrotation 
	JOINT LHipJoint
	{
		OFFSET 0.000000 0.000000 0.000000
		CHANNELS 3 Zrotation Yrotation Xrotation
		JOINT LeftUpLeg
		{
			OFFSET 1.363060 -1.794630 0.839290
			CHANNELS 3 Zrotation Yrotation Xrotation
			JOINT LeftLeg
			{
				OFFSET 2.448110 -6.726130 0.000000
				CHANNELS 3 Zrotation Yrotation Xrotation
				JOINT LeftFoot
				{
					OFFSET 2.562200 -7.039590 0.000000
					CHANNELS 3 Zrotation Yrotation Xrotation
					JOINT LeftToeBase
					{
						OFFSET 0.157640 -0.433110 2.322550
						CHANNELS 3 Zrotation Yrotation Xrotation
						End Site
						{
							OFFSET 0.000000 0.000000 0.000000
						}
					}
				}
			}
		}
	}
	JOINT RHipJoint
	{
		OFFSET 0.000000 0.000000 0.000000
		CHANNELS 3 Zrotation Yrotation Xrotation
		JOINT RightUpLeg
		{
			OFFSET -1.305520 -1.794630 0.839290
			CHANNELS 3 Zrotation Yrotation Xrotation
			JOINT RightLeg
			{
				OFFSET -2.542530 -6.985550 0.000000
				CHANNELS 3 Zrotation Yrotation Xrotation
				JOINT RightFoot
				{
					OFFSET -2.568260 -7.056230 0.000000
					CHANNELS 3 Zrotation Yrotation Xrotation
					JOINT RightToeBase
					{
						OFFSET -0.164730 -0.452590 2.363150
						CHANNELS 3 Zrotation Yrotation Xrotation
						End Site
						{
							OFFSET 0.000000 0.000000 0.000000
						}
					}
				}
			}
		}
	}
}
MOTION
Frames: 33
Frame Time: 0.008333
-18.761936 15.004991 -0.791269 -59.262850 83.577159 -19.736720 -7.461949 -0.371430 1.924741 -14.489531 -5.052195 -93.013563 -1.876248 4.877282 48.082888 2.157964 8.730376 -1.566128 2.090900 0.000000 -9.536100 11.352193 -2.019587 -3.861531 9.364020 -6.010224 -14.825512 1.594159 -1.938653 36.163472 0.166528 3.385089 -0.880873 0.239200 0.000000 -87.323600
-18.579512 14.986205 -0.807584 -61.718913 83.598554 -22.240228 -7.351591 -0.432616 1.760113 -14.289655 -5.112016 -93.186500 -1.646453 5.026807 50.335732 2.215268 8.730408 -2.985074 1.807200 -0.000000 -8.753600 11.554553 -2.026847 -3.915077 9.268680 -6.311300 -15.244710 1.342463 -2.090339 37.653018 0.133008 3.201950 1.384872 0.333900 -0.000000 -87.875900
-18.400353 14.969654 -0.825046 -64.507445 83.627450 -25.068596 -7.238862 -0.508009 1.604288 -14.087642 -5.200463 -93.227927 -1.444369 5.135163 52.381567 2.287419 8.759924 -4.593475 1.496600 -0.000000 -8.248400 11.757447 -2.027583 -3.977843 9.218136 -6.631691 -15.731480 1.088463 -2.236903 39.169435 0.063570 2.886354 3.767079 0.415500 -0.000000 -88.091800
-18.224102 14.954963 -0.843563 -67.623661 83.653652 -28.209636 -7.130409 -0.599282 1.460662 -13.885276 -5.301056 -93.173303 -1.267635 5.210785 54.227673 2.369313 8.814869 -6.279533 1.173699 0.000000 -7.979300 11.955017 -2.024908 -4.042037 9.222024 -6.958599 -16.295647 0.836320 -2.376515 40.704153 -0.043673 2.427942 6.290164 0.466000 -0.000000 -87.956700
-18.050106 14.941759 -0.862937 -71.028344 83.672745 -31.621022 -7.032285 -0.706443 1.329938 -13.690622 -5.400349 -93.050700 -1.112786 5.261812 55.886558 2.454444 8.887051 -7.935500 0.853600 -0.000001 -7.947100 12.140348 -2.019993 -4.103088 9.283749 -7.283680 -16.936588 0.592928 -2.506766 42.247567 -0.188925 1.822490 8.937467 0.462499 -0.000000 -87.394100
-17.878799 14.929774 -0.882881 -74.669851 83.682746 -35.250501 -6.949257 -0.827948 1.211442 -13.512713 -5.487392 -92.885796 -0.976207 5.296002 57.376707 2.535713 8.963328 -9.478263 0.549400 -0.000000 -8.109300 12.306787 -2.012794 -4.158589 9.403568 -7.599325 -17.649691 0.366785 -2.625849 43.794807 -0.369172 1.072154 11.649372 0.379400 0.000000 -86.295800
-17.709775 14.918878 -0.903119 -78.468714 83.682114 -39.017805 -6.885139 -0.959646 1.105059 -13.361084 -5.553431 -92.702735 -0.854932 5.320564 58.718048 2.606417 9.028294 -10.850552 0.272000 0.000000 -8.419700 12.449458 -2.002251 -4.207266 9.578721 -7.902532 -18.438118 0.164399 -2.733493 45.352723 -0.578594 0.186539 14.366222 0.194900 0.000000 -84.602200
-17.543001 14.909078 -0.923313 -82.363521 83.671295 -42.862320 -6.841267 -1.096657 1.009376 -13.244621 -5.593703 -92.517343 -0.746804 5.341057 59.931054 2.661196 9.065960 -12.027042 0.028400 0.000000 -8.817200 12.565729 -1.987517 -4.249702 9.804292 -8.191528 -19.301748 -0.008586 -2.831284 46.930223 -0.808118 -0.821231 16.991337 -0.107901 -0.000000 -82.283600
-17.379024 14.900438 -0.943268 -86.320129 83.651955 -46.753148 -6.816753 -1.234571 0.921893 -13.170738 -5.607036 -92.336748 -0.650547 5.361175 61.035146 2.696908 9.062963 -13.011652 -0.179600 0.000000 -9.242900 12.655512 -1.968861 -4.288471 10.074081 -8.468453 -20.240097 -0.149403 -2.923590 48.540601 -1.046421 -1.933398 19.409730 -0.534700 -0.000000 -79.387000
-17.217662 14.893122 -0.962792 -90.322500 83.626005 -50.677932 -6.809722 -1.370244 0.839762 -13.143631 -5.595334 -92.161113 -0.565755 5.382864 62.046574 2.712869 9.010169 -13.831297 -0.354201 -0.000000 -9.651800 12.720024 -1.948166 -4.327011 10.381718 -8.735654 -21.251921 -0.259192 -3.016933 50.197836 -1.281708 -3.129041 21.499799 -1.076801 0.000000 -76.042100
-17.059330 14.887277 -0.981864 -94.373252 83.594807 -54.643300 -6.818212 -1.502548 0.760071 -13.163011 -5.563021 -91.984572 -0.492445 5.406460 62.978021 2.710783 8.904532 -14.527672 -0.501400 0.000000 -10.017400 12.760832 -1.928471 -4.369176 10.721386 -8.994722 -22.336230 -0.342956 -3.119020 51.914664 -1.503642 -4.383311 23.150291 -1.709500 0.000000 -72.462100
-16.904390 14.883208 -1.000432 -98.433959 83.557637 -58.616887 -6.840899 -1.630254 0.679547 -13.227583 -5.509653 -91.796377 -0.431499 5.432047 63.837495 2.693619 8.746702 -15.147880 -0.629001 0.000001 -10.336900 12.779452 -1.912432 -4.418039 11.087844 -9.243483 -23.491114 -0.409359 -3.236948 53.706495 -1.704145 -5.663732 24.265531 -2.392000 0.000000 -68.788200
-16.752707 14.880891 -1.018678 -102.479616 83.513030 -62.575829 -6.876786 -1.753926 0.596371 -13.328594 -5.439999 -91.588338 -0.382987 5.458663 64.631737 2.666273 8.545540 -15.738783 -0.744900 0.000000 -10.615300 12.777034 -1.901874 -4.476319 11.477210 -9.478448 -24.715526 -0.467898 -3.375940 55.579701 -1.878874 -6.936553 24.787743 -3.074599 0.000000 -65.299900
-16.604829 14.880439 -1.036774 -106.420154 83.457485 -66.433936 -6.925007 -1.872371 0.509102 -13.457371 -5.352082 -91.352359 -0.347259 5.485828 65.363527 2.633518 8.311795 -16.337622 -0.855700 0.000000 -10.872200 12.755229 -1.896474 -4.544665 11.886062 -9.691579 -26.007097 -0.528351 -3.538249 57.539799 -2.025741 -8.162541 24.683206 -3.701200 -0.000000 -62.102301
-16.460821 14.881778 -1.054905 -110.144638 83.387305 -70.082132 -6.984058 -1.984013 0.417030 -13.602702 -5.242360 -91.084071 -0.324091 5.513088 66.034253 2.599853 8.058378 -16.968876 -0.965600 -0.000000 -11.130700 12.716601 -1.894014 -4.622287 12.312306 -9.872793 -27.363198 -0.598568 -3.723138 59.584691 -2.144847 -9.303913 23.950523 -4.219000 -0.000001 -59.255000
-16.320631 14.884823 -1.073243 -113.529725 83.299124 -73.398107 -7.051316 -2.086708 0.320112 -13.753332 -5.105973 -90.783520 -0.312589 5.540137 66.645165 2.568892 7.798333 -17.642204 -1.076500 -0.000000 -11.415300 12.665057 -1.890903 -4.706654 12.754676 -10.010981 -28.780376 -0.683478 -3.927306 61.704503 -2.237597 -10.326917 22.616938 -4.584100 -0.000001 -56.728100
-16.184051 14.889367 -1.091987 -116.462693 83.190522 -76.268457 -7.123262 -2.178624 0.218764 -13.898268 -4.937390 -90.455667 -0.311229 5.566789 67.197387 2.543047 7.543484 -18.352520 -1.188100 0.000000 -11.745600 12.605329 -1.882942 -4.793818 13.212446 -10.094666 -30.254448 -0.784481 -4.145643 63.880431 -2.306402 -11.206509 20.737868 -4.768400 0.000001 -54.463100
-16.051290 14.895220 -1.111189 -118.858011 83.060497 -78.606360 -7.196001 -2.258699 0.113525 -14.028308 -4.731261 -90.108781 -0.317916 5.593034 67.693329 2.523294 7.302923 -19.082992 -1.298100 -0.000000 -12.134200 12.542230 -1.866176 -4.879034 13.685570 -10.113854 -31.780843 -0.899684 -4.372297 66.086953 -2.354200 -11.926593 18.393771 -4.761499 0.000000 -52.349500
-15.921802 14.902161 -1.130917 -120.669443 82.908732 -80.363171 -7.265989 -2.326857 0.004870 -14.137042 -4.483015 -89.753708 -0.330283 5.619122 68.136605 2.509243 7.082228 -19.809249 -1.403600 -0.000000 -12.582200 12.479730 -1.837349 -4.957270 14.173967 -10.060481 -33.355047 -1.024699 -4.601428 68.293378 -2.384401 -12.481385 15.687353 -4.572200 0.000000 -50.288500
-15.795818 14.910009 -1.151178 -121.891021 82.735412 -81.530065 -7.330690 -2.383942 -0.106482 -14.219934 -4.189134 -89.402297 -0.345928 5.645573 68.532118 2.499458 6.883426 -20.504711 -1.501100 0.000000 -13.078200 12.420275 -1.794237 -5.023697 14.677588 -9.929510 -34.973241 -1.153949 -4.827844 70.467136 -2.400665 -12.874351 12.736346 -4.225800 -0.000000 -48.176800
-15.672750 14.918630 -1.171868 -122.552564 82.541579 -82.134230 -7.388732 -2.431315 -0.219910 -14.275451 -3.848052 -89.066005 -0.362735 5.673199 68.885905 2.491828 6.705192 -21.145238 -1.587500 0.000000 -13.602700 12.364547 -1.735582 -5.074372 15.196026 -9.719189 -36.632063 -1.282003 -5.047382 72.576277 -2.406513 -13.115785 9.664475 -3.759599 -0.000000 -45.949500
-15.552308 14.927905 -1.192924 -122.717249 82.328573 -82.235676 -7.440196 -2.470671 -0.334344 -14.304140 -3.460779 -88.755616 -0.379221 5.703067 69.205095 2.484214 6.543392 -21.715837 -1.660700 0.000000 -14.110600 12.311285 -1.661333 -5.106251 15.728683 -9.431214 -38.329760 -1.404499 -5.257097 74.592071 -2.404721 -13.219107 6.590766 -3.216400 -0.000000 -43.564400
-15.434756 14.937964 -1.214080 -122.462692 82.097894 -81.914162 -7.485529 -2.503815 -0.451024 -14.309604 -3.025966 -88.471429 -0.394452 5.735742 69.494083 2.474086 6.392623 -22.202202 -1.718400 -0.000001 -14.625900 12.258766 -1.571827 -5.118089 16.272952 -9.069689 -40.057794 -1.518680 -5.454629 76.485359 -2.398351 -13.207396 3.632302 -2.643000 0.000000 -41.160200
-15.319298 14.948664 -1.235251 -121.891297 81.851757 -81.268235 -7.526756 -2.532848 -0.568355 -14.294059 -2.550952 -88.219731 -0.408316 5.772058 69.759910 2.460338 6.246366 -22.610597 -1.761300 -0.000000 -15.092500 12.203220 -1.469137 -5.109341 16.827723 -8.641481 -41.817007 -1.622970 -5.639600 78.238716 -2.387281 -13.090366 0.862609 -2.073700 0.000000 -38.681400
-15.205934 14.960083 -1.256281 -121.102158 81.592235 -80.397718 -7.565818 -2.559887 -0.686516 -14.260993 -2.040609 -87.997333 -0.421234 5.812183 70.006819 2.442180 6.098767 -22.950535 -1.790500 -0.000000 -15.509400 12.141179 -1.355814 -5.080491 17.390205 -8.153841 -43.600947 -1.716647 -5.811707 79.834705 -2.371590 -12.883556 -1.658334 -1.538600 0.000000 -36.245900
-15.094647 14.972468 -1.276915 -120.191019 81.323163 -79.403719 -7.603745 -2.586675 -0.807669 -14.215848 -1.499595 -87.790636 -0.434081 5.855168 70.234503 2.419309 5.946371 -23.231859 -1.807400 -0.000000 -15.930700 12.070529 -1.234408 -5.033903 17.954068 -7.616522 -45.398318 -1.799113 -5.971524 81.259658 -2.350608 -12.599660 -3.901154 -1.057300 0.000000 -33.959800
-14.985045 14.985773 -1.297138 -119.240673 81.047224 -78.368011 -7.642475 -2.615152 -0.931041 -14.160130 -0.936980 -87.594914 -0.448104 5.900553 70.445363 2.392702 5.785665 -23.479007 -1.815599 0.000000 -16.338600 11.988111 -1.108584 -4.970687 18.516348 -7.035700 -47.204762 -1.869429 -6.119953 82.507431 -2.322745 -12.243981 -5.869059 -0.638000 -0.000001 -31.855800
-14.877017 15.000104 -1.316816 -118.314242 80.767448 -77.357334 -7.682736 -2.646750 -1.057892 -14.095914 -0.358730 -87.396983 -0.464398 5.946982 70.637946 2.363332 5.616171 -23.708825 -1.817700 0.000000 -16.768800 11.892703 -0.981364 -4.892993 19.071338 -6.417919 -49.010552 -1.926149 -6.258062 83.573383 -2.287149 -11.823288 -7.582954 -0.282200 0.000000 -29.976200
-14.770306 15.015491 -1.335981 -117.453649 80.485953 -76.414708 -7.725437 -2.682726 -1.188318 -14.022924 0.229283 -87.188088 -0.483976 5.993377 70.810966 2.332486 5.438212 -23.938787 -1.816500 0.000000 -17.235700 11.783136 -0.855852 -4.802105 19.614921 -5.766752 -50.807945 -1.967409 -6.386683 84.456189 -2.243697 -11.344410 -9.077170 0.014001 -0.000000 -28.342800
-14.664930 15.032050 -1.354419 -116.678891 80.206952 -75.564595 -7.769052 -2.722197 -1.323917 -13.944980 0.822630 -86.954583 -0.507493 6.037953 70.958978 2.301160 5.255673 -24.172191 -1.813200 -0.000000 -17.809400 11.661439 -0.732760 -4.699479 20.136729 -5.086512 -52.588250 -1.991296 -6.506844 85.157049 -2.193257 -10.816050 -10.394095 0.257700 0.000000 -26.939900
-14.560503 15.049642 -1.372294 -115.991652 79.930053 -74.806825 -7.814569 -2.765968 -1.463520 -13.858293 1.418561 -86.695690 -0.535345 6.080417 71.082005 2.270267 5.069166 -24.419392 -1.809499 0.000000 -18.458200 11.526728 -0.614266 -4.584708 20.634903 -4.375630 -54.348108 -1.996007 -6.618603 85.677867 -2.137731 -10.250239 -11.568674 0.455900 0.000000 -25.785100
-14.456874 15.068200 -1.389502 -115.379903 79.656932 -74.129987 -7.860883 -2.812765 -1.607215 -13.764267 2.015626 -86.407766 -0.567452 6.120078 71.176985 2.240153 4.882000 -24.675238 -1.805000 -0.000000 -19.205300 11.380724 -0.500395 -4.457416 21.102741 -3.633896 -56.084004 -1.980370 -6.722050 86.022077 -2.080042 -9.663216 -12.631370 0.615600 0.000000 -24.868500
-14.353822 15.087624 -1.406026 -114.822908 79.388204 -73.512648 -7.907102 -2.861284 -1.754429 -13.663241 2.614019 -86.091767 -0.603500 6.156846 71.242637 2.210745 4.696090 -24.932502 -1.799200 -0.000000 -20.033900 11.224909 -0.390906 -4.316484 21.534547 -2.860228 -57.794674 -1.943931 -6.816876 86.193313 -2.023776 -9.074752 -13.601448 0.743000 -0.000000 -24.185301
